<?xml version="1.0" standalone="no"?>
<!DOCTYPE svg PUBLIC "-//W3C//DTD SVG 20010904//EN"
 "http://www.w3.org/TR/2001/REC-SVG-20010904/DTD/svg10.dtd">
<svg version="1.0" xmlns="http://www.w3.org/2000/svg"
 width="612.000000pt" height="344.000000pt" viewBox="0 0 612.000000 344.000000"
 preserveAspectRatio="xMidYMid meet">
<metadata>
Created by potrace 1.16, written by Peter Selinger 2001-2019
</metadata>
<g transform="translate(0.000000,344.000000) scale(0.100000,-0.100000)"
fill="#000000" stroke="none">
<path d="M1453 3143 c-7 -2 -13 -12 -13 -20 0 -9 45 -102 101 -208 l101 -192
246 -204 c135 -112 287 -239 339 -282 l93 -79 -26 -41 c-62 -101 -144 -281
-144 -316 0 -47 19 -81 133 -241 52 -73 131 -193 177 -268 46 -76 105 -168
132 -205 74 -103 73 -94 44 -257 -38 -217 -66 -432 -66 -505 0 -59 2 -66 23
-74 12 -4 219 -16 461 -25 376 -16 440 -16 452 -4 16 16 22 90 33 451 7 247 7
247 33 275 14 15 38 47 52 70 25 39 29 42 44 29 44 -37 791 -655 817 -675 26
-21 36 -22 95 -17 83 9 137 32 177 78 38 43 53 91 53 170 0 57 -11 92 -36 112
-6 6 -70 57 -140 114 -204 166 -368 298 -524 425 -80 65 -176 142 -215 171
-100 75 -107 84 -95 126 13 43 13 95 1 118 -8 14 6 32 70 95 108 108 108 118
-3 230 -56 56 -93 86 -114 90 -25 6 -33 14 -42 44 -15 50 -176 209 -220 218
-28 6 -30 8 -24 46 8 64 -16 96 -116 156 -114 67 -158 85 -192 77 -21 -5 -34
-1 -51 17 -13 13 -63 47 -110 76 -70 42 -95 52 -131 52 -49 0 -67 -11 -93 -55
l-18 -30 32 32 c51 52 68 51 163 -6 95 -57 128 -85 128 -108 0 -16 -35 -78
-57 -101 -7 -7 -13 -20 -13 -27 0 -8 -6 -18 -14 -22 -8 -4 -16 -12 -17 -18 -6
-22 -73 -107 -77 -97 -2 6 -9 9 -15 7 -7 -3 -41 6 -77 20 -63 24 -64 24 -20
19 25 -4 55 -13 67 -20 30 -19 35 -18 31 7 -3 20 -10 21 -95 24 -83 2 -95 5
-129 31 -32 25 -37 26 -30 9 5 -15 4 -17 -4 -9 -19 19 7 62 35 58 18 -1 22 2
17 14 -3 10 -7 12 -10 4 -2 -7 -8 -12 -13 -12 -13 0 22 61 38 67 7 3 11 9 8
13 -3 4 4 19 15 33 11 14 20 30 20 37 0 6 4 9 8 6 4 -2 8 5 8 16 l0 20 -16
-20 c-8 -11 -39 -59 -68 -106 -29 -47 -57 -86 -62 -86 -4 0 -106 79 -227 176
-120 97 -233 188 -251 203 -19 14 -78 63 -133 108 -54 45 -107 84 -117 87 -52
16 -398 106 -407 105 -5 0 -16 -3 -22 -6z m315 -94 c40 -10 79 -22 86 -26 43
-26 186 -148 186 -159 0 -7 6 -11 13 -9 20 8 69 -38 62 -58 -4 -9 -10 -17 -14
-17 -14 0 -111 92 -106 101 4 5 0 6 -7 4 -8 -3 -29 6 -48 20 -19 14 -35 25
-37 25 -2 0 -3 -20 -3 -43 0 -36 4 -46 24 -55 44 -20 95 -72 91 -92 -2 -11 1
-20 7 -20 5 0 7 7 4 16 -4 10 -2 14 6 11 7 -2 12 -9 11 -15 -2 -6 3 -9 10 -7
12 5 100 -59 92 -66 -2 -3 9 -13 26 -24 16 -11 29 -24 29 -29 0 -5 -8 -2 -18
7 -14 13 -21 14 -30 5 -14 -14 -16 -38 -3 -38 5 0 11 8 13 18 3 12 7 7 15 -16
7 -19 8 -30 2 -27 -6 4 -7 -3 -3 -19 4 -16 2 -26 -5 -26 -6 0 -11 14 -11 30 0
17 -4 30 -9 30 -17 0 -23 -20 -12 -34 9 -10 8 -15 -4 -20 -11 -4 -15 2 -15 24
0 17 -4 30 -8 30 -5 0 -8 -10 -8 -21 1 -12 -4 -24 -10 -26 -7 -2 -10 6 -9 22
2 17 -2 25 -12 25 -13 0 -13 -3 -3 -15 10 -13 9 -15 -9 -15 -14 0 -21 6 -21
20 0 16 7 20 33 20 20 0 39 8 50 20 15 18 14 24 -5 21 -5 0 -8 4 -8 9 0 6 11
8 28 4 27 -6 27 -6 5 10 -23 18 -53 12 -53 -10 0 -8 -4 -14 -8 -14 -5 0 -9 7
-9 15 0 8 4 15 9 15 5 0 -2 14 -14 31 -12 16 -24 25 -26 19 -2 -6 1 -17 8 -24
8 -11 8 -16 -1 -21 -13 -9 -29 12 -29 38 0 22 -12 22 -27 -2 -6 -10 -25 -23
-42 -29 -25 -9 -35 -7 -70 16 -23 15 -41 32 -41 39 0 16 0 16 42 -2 29 -12 38
-12 53 -1 26 19 15 36 -51 76 -43 27 -58 41 -56 56 3 19 2 19 -13 0 -8 -11
-15 -25 -15 -30 0 -6 5 -4 10 4 6 9 10 10 10 3 0 -6 -4 -15 -10 -18 -5 -3 -10
-19 -10 -34 0 -23 -5 -30 -26 -34 -24 -4 -26 -3 -22 30 3 23 0 32 -8 29 -7 -3
-18 9 -24 25 -11 26 -10 32 12 52 13 12 33 37 44 55 27 46 60 41 56 -7 -4 -46
9 -33 18 19 7 36 5 43 -14 55 -11 8 -40 17 -64 21 -23 4 -45 11 -48 15 -3 5
-11 9 -17 9 -9 0 -8 -3 1 -8 10 -7 10 -15 -1 -40 -13 -31 -32 -36 -20 -6 3 9
-2 14 -15 14 -12 0 -24 5 -27 10 -3 6 -15 10 -26 10 -33 0 -16 22 27 36 l39
13 -40 -5 c-30 -4 -36 -3 -25 5 12 9 9 11 -13 11 -16 0 -26 4 -23 9 3 4 29 2
58 -6 29 -8 86 -23 126 -34z m1470 -470 c31 -17 62 -36 67 -43 6 -6 17 -12 25
-14 22 -5 41 -23 34 -33 -3 -5 2 -6 11 -3 11 5 18 0 22 -15 3 -11 9 -18 13
-16 5 3 8 -8 8 -24 -1 -18 -5 -28 -11 -24 -6 3 -7 1 -3 -5 3 -6 1 -22 -6 -37
-11 -25 -13 -26 -26 -8 -13 17 -14 17 -8 -2 6 -20 2 -20 -156 -17 -124 2 -163
0 -169 -10 -7 -11 -9 -11 -9 0 0 7 -5 10 -12 6 -7 -5 -5 -11 7 -21 20 -14 9
-18 -13 -4 -11 6 -10 18 5 62 9 30 16 57 15 61 -2 8 60 122 81 149 28 36 55
36 125 -2z m1424 -1903 c31 -26 38 -37 38 -69 0 -68 -33 -109 -109 -135 -31
-11 -38 -10 -73 14 -63 44 -65 50 -20 73 53 27 91 74 98 122 7 42 8 42 66 -5z"/>
</g>
</svg>
